<svg width="40" height="40" viewBox="0 0 40 40" fill="none" xmlns="http://www.w3.org/2000/svg">
  <!-- Modern AI-inspired logo design -->
  <circle cx="20" cy="20" r="18" fill="url(#gradient1)" stroke="url(#gradient2)" stroke-width="2"/>
  
  <!-- Neural network pattern -->
  <circle cx="14" cy="14" r="2" fill="white" opacity="0.9"/>
  <circle cx="26" cy="14" r="2" fill="white" opacity="0.9"/>
  <circle cx="20" cy="20" r="2" fill="white"/>
  <circle cx="14" cy="26" r="2" fill="white" opacity="0.9"/>
  <circle cx="26" cy="26" r="2" fill="white" opacity="0.9"/>
  
  <!-- Connecting lines -->
  <line x1="14" y1="14" x2="20" y2="20" stroke="white" stroke-width="1" opacity="0.7"/>
  <line x1="26" y1="14" x2="20" y2="20" stroke="white" stroke-width="1" opacity="0.7"/>
  <line x1="20" y1="20" x2="14" y2="26" stroke="white" stroke-width="1" opacity="0.7"/>
  <line x1="20" y1="20" x2="26" y2="26" stroke="white" stroke-width="1" opacity="0.7"/>
  <line x1="14" y1="14" x2="26" y2="14" stroke="white" stroke-width="1" opacity="0.5"/>
  <line x1="14" y1="26" x2="26" y2="26" stroke="white" stroke-width="1" opacity="0.5"/>
  
  <!-- Letter K shape -->
  <path d="M8 8 L8 32 M8 20 L15 8 M8 20 L15 32" stroke="white" stroke-width="2" stroke-linecap="round"/>
  
  <defs>
    <linearGradient id="gradient1" x1="0%" y1="0%" x2="100%" y2="100%">
      <stop offset="0%" stop-color="#4F46E5"/>
      <stop offset="100%" stop-color="#7C3AED"/>
    </linearGradient>
    <linearGradient id="gradient2" x1="0%" y1="0%" x2="100%" y2="100%">
      <stop offset="0%" stop-color="#6366F1"/>
      <stop offset="100%" stop-color="#8B5CF6"/>
    </linearGradient>
  </defs>
</svg>